%TF.GenerationSoftware,KiCad,Pcbnew,7.0.5*%
%TF.CreationDate,2023-06-16T02:28:43+08:00*%
%TF.ProjectId,io,696f2e6b-6963-4616-945f-706362585858,rev?*%
%TF.SameCoordinates,Original*%
%TF.FileFunction,Legend,Bot*%
%TF.FilePolarity,Positive*%
%FSLAX46Y46*%
G04 Gerber Fmt 4.6, Leading zero omitted, Abs format (unit mm)*
G04 Created by KiCad (PCBNEW 7.0.5) date 2023-06-16 02:28:43*
%MOMM*%
%LPD*%
G01*
G04 APERTURE LIST*
%ADD10C,0.150000*%
%ADD11C,0.120000*%
%ADD12R,0.740000X2.400000*%
G04 APERTURE END LIST*
D10*
%TO.C,J13*%
X61414819Y-72410476D02*
X62129104Y-72410476D01*
X62129104Y-72410476D02*
X62271961Y-72362857D01*
X62271961Y-72362857D02*
X62367200Y-72267619D01*
X62367200Y-72267619D02*
X62414819Y-72124762D01*
X62414819Y-72124762D02*
X62414819Y-72029524D01*
X62414819Y-73410476D02*
X62414819Y-72839048D01*
X62414819Y-73124762D02*
X61414819Y-73124762D01*
X61414819Y-73124762D02*
X61557676Y-73029524D01*
X61557676Y-73029524D02*
X61652914Y-72934286D01*
X61652914Y-72934286D02*
X61700533Y-72839048D01*
X61414819Y-73743810D02*
X61414819Y-74362857D01*
X61414819Y-74362857D02*
X61795771Y-74029524D01*
X61795771Y-74029524D02*
X61795771Y-74172381D01*
X61795771Y-74172381D02*
X61843390Y-74267619D01*
X61843390Y-74267619D02*
X61891009Y-74315238D01*
X61891009Y-74315238D02*
X61986247Y-74362857D01*
X61986247Y-74362857D02*
X62224342Y-74362857D01*
X62224342Y-74362857D02*
X62319580Y-74315238D01*
X62319580Y-74315238D02*
X62367200Y-74267619D01*
X62367200Y-74267619D02*
X62414819Y-74172381D01*
X62414819Y-74172381D02*
X62414819Y-73886667D01*
X62414819Y-73886667D02*
X62367200Y-73791429D01*
X62367200Y-73791429D02*
X62319580Y-73743810D01*
D11*
X63025000Y-70130000D02*
X63025000Y-71455000D01*
X88415000Y-74985000D02*
X88480000Y-74985000D01*
X88480000Y-71455000D02*
X88480000Y-74985000D01*
X88415000Y-71455000D02*
X88480000Y-71455000D01*
X62960000Y-71455000D02*
X63025000Y-71455000D01*
X62960000Y-74985000D02*
X63025000Y-74985000D01*
X62960000Y-71455000D02*
X62960000Y-74985000D01*
%TD*%
%LPC*%
D12*
%TO.C,J13*%
X87785000Y-75170000D03*
X87785000Y-71270000D03*
X86515000Y-75170000D03*
X86515000Y-71270000D03*
X85245000Y-75170000D03*
X85245000Y-71270000D03*
X83975000Y-75170000D03*
X83975000Y-71270000D03*
X82705000Y-75170000D03*
X82705000Y-71270000D03*
X81435000Y-75170000D03*
X81435000Y-71270000D03*
X80165000Y-75170000D03*
X80165000Y-71270000D03*
X78895000Y-75170000D03*
X78895000Y-71270000D03*
X77625000Y-75170000D03*
X77625000Y-71270000D03*
X76355000Y-75170000D03*
X76355000Y-71270000D03*
X75085000Y-75170000D03*
X75085000Y-71270000D03*
X73815000Y-75170000D03*
X73815000Y-71270000D03*
X72545000Y-75170000D03*
X72545000Y-71270000D03*
X71275000Y-75170000D03*
X71275000Y-71270000D03*
X70005000Y-75170000D03*
X70005000Y-71270000D03*
X68735000Y-75170000D03*
X68735000Y-71270000D03*
X67465000Y-75170000D03*
X67465000Y-71270000D03*
X66195000Y-75170000D03*
X66195000Y-71270000D03*
X64925000Y-75170000D03*
X64925000Y-71270000D03*
X63655000Y-75170000D03*
X63655000Y-71270000D03*
%TD*%
%LPD*%
M02*
