%TF.GenerationSoftware,KiCad,Pcbnew,7.0.5*%
%TF.CreationDate,2023-06-16T02:28:43+08:00*%
%TF.ProjectId,io,696f2e6b-6963-4616-945f-706362585858,rev?*%
%TF.SameCoordinates,Original*%
%TF.FileFunction,Soldermask,Bot*%
%TF.FilePolarity,Negative*%
%FSLAX46Y46*%
G04 Gerber Fmt 4.6, Leading zero omitted, Abs format (unit mm)*
G04 Created by KiCad (PCBNEW 7.0.5) date 2023-06-16 02:28:43*
%MOMM*%
%LPD*%
G01*
G04 APERTURE LIST*
%ADD10R,0.740000X2.400000*%
G04 APERTURE END LIST*
D10*
%TO.C,J13*%
X87785000Y-75170000D03*
X87785000Y-71270000D03*
X86515000Y-75170000D03*
X86515000Y-71270000D03*
X85245000Y-75170000D03*
X85245000Y-71270000D03*
X83975000Y-75170000D03*
X83975000Y-71270000D03*
X82705000Y-75170000D03*
X82705000Y-71270000D03*
X81435000Y-75170000D03*
X81435000Y-71270000D03*
X80165000Y-75170000D03*
X80165000Y-71270000D03*
X78895000Y-75170000D03*
X78895000Y-71270000D03*
X77625000Y-75170000D03*
X77625000Y-71270000D03*
X76355000Y-75170000D03*
X76355000Y-71270000D03*
X75085000Y-75170000D03*
X75085000Y-71270000D03*
X73815000Y-75170000D03*
X73815000Y-71270000D03*
X72545000Y-75170000D03*
X72545000Y-71270000D03*
X71275000Y-75170000D03*
X71275000Y-71270000D03*
X70005000Y-75170000D03*
X70005000Y-71270000D03*
X68735000Y-75170000D03*
X68735000Y-71270000D03*
X67465000Y-75170000D03*
X67465000Y-71270000D03*
X66195000Y-75170000D03*
X66195000Y-71270000D03*
X64925000Y-75170000D03*
X64925000Y-71270000D03*
X63655000Y-75170000D03*
X63655000Y-71270000D03*
%TD*%
M02*
