%TF.GenerationSoftware,KiCad,Pcbnew,7.0.5*%
%TF.CreationDate,2023-06-16T02:28:43+08:00*%
%TF.ProjectId,io,696f2e6b-6963-4616-945f-706362585858,rev?*%
%TF.SameCoordinates,Original*%
%TF.FileFunction,Soldermask,Top*%
%TF.FilePolarity,Negative*%
%FSLAX46Y46*%
G04 Gerber Fmt 4.6, Leading zero omitted, Abs format (unit mm)*
G04 Created by KiCad (PCBNEW 7.0.5) date 2023-06-16 02:28:43*
%MOMM*%
%LPD*%
G01*
G04 APERTURE LIST*
G04 Aperture macros list*
%AMRoundRect*
0 Rectangle with rounded corners*
0 $1 Rounding radius*
0 $2 $3 $4 $5 $6 $7 $8 $9 X,Y pos of 4 corners*
0 Add a 4 corners polygon primitive as box body*
4,1,4,$2,$3,$4,$5,$6,$7,$8,$9,$2,$3,0*
0 Add four circle primitives for the rounded corners*
1,1,$1+$1,$2,$3*
1,1,$1+$1,$4,$5*
1,1,$1+$1,$6,$7*
1,1,$1+$1,$8,$9*
0 Add four rect primitives between the rounded corners*
20,1,$1+$1,$2,$3,$4,$5,0*
20,1,$1+$1,$4,$5,$6,$7,0*
20,1,$1+$1,$6,$7,$8,$9,0*
20,1,$1+$1,$8,$9,$2,$3,0*%
G04 Aperture macros list end*
%ADD10RoundRect,0.150000X-0.150000X-0.700000X0.150000X-0.700000X0.150000X0.700000X-0.150000X0.700000X0*%
%ADD11RoundRect,0.250000X-0.250000X-1.150000X0.250000X-1.150000X0.250000X1.150000X-0.250000X1.150000X0*%
%ADD12R,0.740000X2.400000*%
G04 APERTURE END LIST*
D10*
%TO.C,J9*%
X57072600Y-62165200D03*
X58322600Y-62165200D03*
X59572600Y-62165200D03*
X60822600Y-62165200D03*
D11*
X55222600Y-58815200D03*
X62672600Y-58815200D03*
%TD*%
%TO.C,J2*%
X62646800Y-38673000D03*
X55196800Y-38673000D03*
D10*
X60796800Y-42023000D03*
X59546800Y-42023000D03*
X58296800Y-42023000D03*
X57046800Y-42023000D03*
%TD*%
D11*
%TO.C,J12*%
X62630200Y-48680600D03*
X55180200Y-48680600D03*
D10*
X60780200Y-52030600D03*
X59530200Y-52030600D03*
X58280200Y-52030600D03*
X57030200Y-52030600D03*
%TD*%
D11*
%TO.C,J11*%
X73919266Y-58815200D03*
X66469266Y-58815200D03*
D10*
X72069266Y-62165200D03*
X70819266Y-62165200D03*
X69569266Y-62165200D03*
X68319266Y-62165200D03*
%TD*%
D12*
%TO.C,J10*%
X63655000Y-75170000D03*
X63655000Y-71270000D03*
X64925000Y-75170000D03*
X64925000Y-71270000D03*
X66195000Y-75170000D03*
X66195000Y-71270000D03*
X67465000Y-75170000D03*
X67465000Y-71270000D03*
X68735000Y-75170000D03*
X68735000Y-71270000D03*
X70005000Y-75170000D03*
X70005000Y-71270000D03*
X71275000Y-75170000D03*
X71275000Y-71270000D03*
X72545000Y-75170000D03*
X72545000Y-71270000D03*
X73815000Y-75170000D03*
X73815000Y-71270000D03*
X75085000Y-75170000D03*
X75085000Y-71270000D03*
X76355000Y-75170000D03*
X76355000Y-71270000D03*
X77625000Y-75170000D03*
X77625000Y-71270000D03*
X78895000Y-75170000D03*
X78895000Y-71270000D03*
X80165000Y-75170000D03*
X80165000Y-71270000D03*
X81435000Y-75170000D03*
X81435000Y-71270000D03*
X82705000Y-75170000D03*
X82705000Y-71270000D03*
X83975000Y-75170000D03*
X83975000Y-71270000D03*
X85245000Y-75170000D03*
X85245000Y-71270000D03*
X86515000Y-75170000D03*
X86515000Y-71270000D03*
X87785000Y-75170000D03*
X87785000Y-71270000D03*
%TD*%
D11*
%TO.C,J8*%
X96386800Y-38673000D03*
X88936800Y-38673000D03*
D10*
X94536800Y-42023000D03*
X93286800Y-42023000D03*
X92036800Y-42023000D03*
X90786800Y-42023000D03*
%TD*%
%TO.C,J7*%
X79540132Y-42023000D03*
X80790132Y-42023000D03*
X82040132Y-42023000D03*
X83290132Y-42023000D03*
D11*
X77690132Y-38673000D03*
X85140132Y-38673000D03*
%TD*%
%TO.C,J6*%
X96385200Y-48680600D03*
X88935200Y-48680600D03*
D10*
X94535200Y-52030600D03*
X93285200Y-52030600D03*
X92035200Y-52030600D03*
X90785200Y-52030600D03*
%TD*%
%TO.C,J5*%
X68293466Y-42023000D03*
X69543466Y-42023000D03*
X70793466Y-42023000D03*
X72043466Y-42023000D03*
D11*
X66443466Y-38673000D03*
X73893466Y-38673000D03*
%TD*%
D10*
%TO.C,J4*%
X79533532Y-52030600D03*
X80783532Y-52030600D03*
X82033532Y-52030600D03*
X83283532Y-52030600D03*
D11*
X77683532Y-48680600D03*
X85133532Y-48680600D03*
%TD*%
%TO.C,J3*%
X73881866Y-48680600D03*
X66431866Y-48680600D03*
D10*
X72031866Y-52030600D03*
X70781866Y-52030600D03*
X69531866Y-52030600D03*
X68281866Y-52030600D03*
%TD*%
%TO.C,J1*%
X88317600Y-62165200D03*
X89567600Y-62165200D03*
X90817600Y-62165200D03*
X92067600Y-62165200D03*
X93317600Y-62165200D03*
X94567600Y-62165200D03*
D11*
X96417600Y-58815200D03*
X86467600Y-58815200D03*
%TD*%
M02*
