M48
INCH
T1C0.0100
T2C0.0150
%
G90
G05
T1
X2.0901Y-2.1237
X2.0901Y-2.2397
X2.0901Y-2.3557
X2.0901Y-2.4717
X2.0901Y-2.5857
X2.0901Y-2.7017
X2.0901Y-2.8177
X2.0901Y-2.9337
X2.0921Y-1.4357
X2.0921Y-1.5517
X2.0921Y-1.6657
X2.0921Y-1.7817
X2.0921Y-1.8977
X2.0921Y-2.0137
X2.2459Y-1.9867
X2.2741Y-1.3297
X2.2811Y-1.5287
X2.2971Y-3.0947
X2.3021Y-1.9157
X2.3671Y-1.5287
X2.3821Y-2.3257
X2.3881Y-1.9157
X2.3901Y-1.3297
X2.4091Y-2.5877
X2.4161Y-3.0947
X2.4571Y-1.7187
X2.4641Y-2.1537
X2.4811Y-2.4997
X2.506Y-2.808
X2.506Y-2.84
X2.506Y-2.926
X2.506Y-2.956
X2.5061Y-1.3297
X2.5251Y-2.5877
X2.5321Y-3.0947
X2.556Y-2.808
X2.556Y-2.84
X2.556Y-2.926
X2.556Y-2.956
X2.5731Y-1.7187
X2.5801Y-2.1537
X2.5971Y-2.4997
X2.606Y-2.808
X2.606Y-2.84
X2.606Y-2.928
X2.606Y-2.958
X2.6221Y-1.3297
X2.6481Y-3.0947
X2.656Y-2.808
X2.656Y-2.84
X2.656Y-2.926
X2.656Y-2.956
X2.6891Y-1.9877
X2.6901Y-1.7197
X2.706Y-2.808
X2.706Y-2.84
X2.706Y-2.926
X2.706Y-2.956
X2.7261Y-1.5237
X2.7361Y-1.3297
X2.7491Y-2.3517
X2.756Y-2.8107
X2.756Y-2.8407
X2.756Y-2.926
X2.756Y-2.956
X2.7641Y-3.0947
X2.806Y-2.8107
X2.806Y-2.8407
X2.806Y-2.926
X2.806Y-2.956
X2.8121Y-1.5237
X2.8301Y-2.1877
X2.8521Y-1.3297
X2.856Y-2.8107
X2.856Y-2.8407
X2.856Y-2.926
X2.856Y-2.956
X2.8851Y-3.0947
X2.906Y-2.8107
X2.906Y-2.8407
X2.906Y-2.926
X2.906Y-2.956
X2.9181Y-1.7237
X2.9461Y-2.1877
X2.956Y-2.81
X2.956Y-2.84
X2.956Y-2.926
X2.956Y-2.956
X2.9681Y-1.3297
X2.9901Y-2.3397
X3.0011Y-3.0947
X3.006Y-2.926
X3.006Y-2.956
X3.008Y-2.81
X3.008Y-2.84
X3.0161Y-2.3077
X3.0341Y-1.7237
X3.0391Y-2.3367
X3.056Y-2.81
X3.056Y-2.84
X3.056Y-2.928
X3.056Y-2.958
X3.0591Y-2.3067
X3.0841Y-1.3297
X3.106Y-2.808
X3.106Y-2.838
X3.106Y-2.928
X3.106Y-2.958
X3.1171Y-3.0947
X3.1211Y-2.1857
X3.1312Y-1.9847
X3.1351Y-2.6567
X3.1491Y-2.3817
X3.156Y-2.926
X3.156Y-2.956
X3.158Y-2.81
X3.158Y-2.84
X3.1701Y-1.5307
X3.206Y-2.81
X3.206Y-2.84
X3.206Y-2.928
X3.206Y-2.958
X3.2061Y-1.3307
X3.2223Y-2.4287
X3.2311Y-2.4847
X3.2331Y-3.0947
X3.2511Y-2.6567
X3.256Y-2.81
X3.256Y-2.84
X3.256Y-2.928
X3.256Y-2.958
X3.2561Y-1.5307
X3.2641Y-2.4537
X3.2671Y-2.1487
X3.2851Y-2.4767
X3.306Y-2.802
X3.306Y-2.84
X3.306Y-2.884
X3.306Y-2.928
X3.306Y-2.96
X3.3221Y-1.3307
X3.3451Y-1.7317
X3.3461Y-2.4257
X3.3471Y-3.0947
X3.354Y-2.884
X3.356Y-2.802
X3.356Y-2.84
X3.356Y-2.928
X3.356Y-2.96
X3.3681Y-2.6567
X3.406Y-2.804
X3.406Y-2.84
X3.406Y-2.926
X3.406Y-2.958
X3.4381Y-1.3307
X3.456Y-2.926
X3.456Y-2.96
X3.458Y-2.806
X3.458Y-2.84
X3.4611Y-1.7317
X3.4631Y-3.0947
X3.4841Y-2.6567
X3.4881Y-2.0937
X3.4881Y-2.2097
X3.5541Y-1.3307
X3.5751Y-1.7287
X3.5751Y-1.9837
X3.5791Y-3.0947
X3.5961Y-2.3367
X3.6111Y-1.5357
X3.6241Y-1.9277
X3.6681Y-1.3307
X3.6951Y-3.0947
X3.6971Y-1.5357
X3.6981Y-2.2397
X3.6981Y-2.3367
X3.7101Y-1.9277
X3.8771Y-1.4447
X3.8771Y-1.5607
X3.8771Y-1.6767
X3.8771Y-1.7927
X3.8771Y-1.9067
X3.8771Y-2.0227
X3.8771Y-2.1387
X3.8771Y-2.2517
X3.8781Y-2.3727
X3.8781Y-2.4887
X3.8781Y-2.6047
X3.8781Y-2.7207
X3.8781Y-2.8347
X3.8781Y-2.9507
T2
X2.247Y-2.5177
T0
M30
